<?xml version="1.0" encoding="UTF-8" standalone="no"?>
<svg
   viewBox="0 0 190.74 190.74"
   version="1.1"
   id="svg1"
   xmlns="http://www.w3.org/2000/svg"
   xmlns:svg="http://www.w3.org/2000/svg">
  <defs
     id="defs1">
    <style
       id="style1">.cls-1{fill:#181818;}</style>
  </defs>
  <g
     id="Layer_2"
     data-name="Layer 2"
     transform="matrix(0.89975583,0,0,0.89969031,9.5620615,9.5620418)">
    <g
       id="Layer_1-2"
       data-name="Layer 1">
      <path
         class="cls-1"
         d="m 177.2,62.64 a 46,46 0 0 0 -20.73,-12 L 173,34.12 156.63,17.75 140.08,34.3 a 46.28,46.28 0 0 0 -89.42,0 L 34.12,17.75 17.75,34.12 34.28,50.64 a 46.3,46.3 0 0 0 0,89.44 L 17.75,156.63 34.12,173 50.66,156.45 a 46.28,46.28 0 0 0 89.42,0 L 156.63,173 173,156.63 156.45,140.08 A 46.28,46.28 0 0 0 177.2,62.64 Z m -16.36,49.1 a 23.19,23.19 0 0 1 -32.74,0 L 111.74,95.37 128.1,79 a 23.150676,23.150676 0 0 1 32.74,32.74 z m -49.1,49.1 A 23.150676,23.150676 0 0 1 79,128.1 l 16.37,-16.36 16.37,16.36 a 23.19,23.19 0 0 1 0,32.74 z M 29.9,111.74 A 23.150676,23.150676 0 0 1 62.64,79 L 79,95.37 62.64,111.74 a 23.19,23.19 0 0 1 -32.74,0 z M 79,29.9 a 23.150676,23.150676 0 1 1 32.74,32.74 L 95.37,79 79,62.64 A 23.19,23.19 0 0 1 79,29.9 Z"
         id="path1" />
    </g>
  </g>
</svg>
