<svg xmlns="http://www.w3.org/2000/svg" viewBox="0 0 190.74 190.74"><defs><style>.cls-1{fill:#181818;}</style></defs><g id="Layer_2" data-name="Layer 2"><g id="Layer_1-2" data-name="Layer 1"><path class="cls-1" d="M177.2,62.64a46,46,0,0,0-20.73-12L173,34.12,156.63,17.75,140.08,34.3a46.28,46.28,0,0,0-89.42,0L34.12,17.75,17.75,34.12,34.28,50.64a46.3,46.3,0,0,0,0,89.44L17.75,156.63,34.12,173l16.54-16.55a46.28,46.28,0,0,0,89.42,0L156.63,173,173,156.63l-16.55-16.55A46.28,46.28,0,0,0,177.2,62.64Zm-16.36,49.1a23.19,23.19,0,0,1-32.74,0L111.74,95.37,128.1,79a23.15,23.15,0,0,1,32.74,32.74Zm-49.1,49.1A23.15,23.15,0,0,1,79,128.1l16.37-16.36,16.37,16.36A23.19,23.19,0,0,1,111.74,160.84ZM29.9,111.74A23.15,23.15,0,0,1,62.64,79L79,95.37,62.64,111.74A23.19,23.19,0,0,1,29.9,111.74ZM79,29.9a23.15,23.15,0,1,1,32.74,32.74L95.37,79,79,62.64A23.19,23.19,0,0,1,79,29.9Z"/></g></g></svg>